<svg xmlns="http://www.w3.org/2000/svg" xmlns:xlink="http://www.w3.org/1999/xlink" width="45" height="45" version="1.1" viewBox="0 0 45 45"><title>BitPay - Wallet</title><defs><circle id="path-1" cx="22.5" cy="22.5" r="22.5"/></defs><g id="Icons/Large-(50px)/Wallet" fill="none" fill-rule="evenodd" stroke="none" stroke-width="1"><mask id="mask-2" fill="#fff"><use xlink:href="#path-1"/></mask><use id="Oval-4" fill="#DFE5FF" xlink:href="#path-1"/><g id="mobile-phone" mask="url(#mask-2)"><g transform="translate(8.000000, 12.000000)"><path id="Path" fill="#214497" d="M24.4565217,45 L4.89130435,45 C2.19423913,45 0,42.8057609 0,40.1086957 L0,4.89130435 C0,2.19423913 2.19423913,0 4.89130435,0 L24.4565217,0 C27.153587,0 29.3478261,2.19423913 29.3478261,4.89130435 L29.3478261,40.1086957 C29.3478261,42.8057609 27.153587,45 24.4565217,45 Z"/><rect id="Rectangle" width="29.348" height="31.304" x="0" y="5.87" fill="#214497"/><path id="Path" fill="#4F6EF7" d="M26.4130435,35.2173913 L2.93478261,35.2173913 C2.39478261,35.2173913 1.95652174,34.7791304 1.95652174,34.2391304 L1.95652174,8.80434783 C1.95652174,8.26434783 2.39478261,7.82608696 2.93478261,7.82608696 L26.4130435,7.82608696 C26.9530435,7.82608696 27.3913043,8.26434783 27.3913043,8.80434783 L27.3913043,34.2391304 C27.3913043,34.7791304 26.9530435,35.2173913 26.4130435,35.2173913 Z"/><circle id="Oval" cx="14.674" cy="2.935" r="1" fill="#4F6EF7"/></g></g><g id="lock" mask="url(#mask-2)"><g id="Path"><path fill="#17191D" d="M3.63636364,6 L3.63636364,4.125 C3.63636364,2.6775525 4.92096636,1.5 6.5,1.5 C8.07903364,1.5 9.36363636,2.6775525 9.36363636,4.125 L9.36363636,6 L11,6 L11,4.125 C11,1.85046375 8.98131227,0 6.5,0 C4.01868773,0 2,1.85046375 2,4.125 L2,6 L3.63636364,6 Z" transform="translate(16.000000, 24.000000)"/><path fill="#9FAFF5" d="M12.2352941,18 L0.764705882,18 C0.342370294,18 0,17.641828 0,17.2 L0,6.8 C0,6.358172 0.342370294,6 0.764705882,6 L12.2352941,6 C12.6576297,6 13,6.358172 13,6.8 L13,17.2 C13,17.641828 12.6576297,18 12.2352941,18 Z" transform="translate(16.000000, 24.000000)"/><path fill="#000" d="M8,11.4285714 C8,10.6395821 7.32843875,10 6.5,10 C5.67158375,10 5,10.6395821 5,11.4285714 C5,11.9560036 5.30354375,12.4115429 5.75,12.6589964 L5.75,15 L7.25,15 L7.25,12.6589964 C7.69647875,12.4115214 8,11.9560036 8,11.4285714 Z" transform="translate(16.000000, 24.000000)"/></g></g></g></svg>